<?xml version="1.0" encoding="iso-8859-1"?>
<!-- Generator: Adobe Illustrator 18.1.1, SVG Export Plug-In . SVG Version: 6.00 Build 0)  -->
<svg version="1.1" id="Capa_1" xmlns="http://www.w3.org/2000/svg" xmlns:xlink="http://www.w3.org/1999/xlink" x="0px" y="0px"
	 viewBox="0 0 55.667 55.667" style="enable-background:new 0 0 55.667 55.667;" xml:space="preserve">
<g>
	<path style="fill:#010002;" d="M27.833,55.667c7.354,0,13.338-5.983,13.338-13.338c0-2.231-0.563-4.438-1.629-6.382
		c-1.356-2.477-2.797-8.07-2.797-13.559V7.419C36.745,3.328,33.417,0,29.326,0H26.34c-4.091,0-7.419,3.328-7.419,7.419v14.968
		c0,5.489-1.441,11.083-2.797,13.559c-1.065,1.945-1.629,4.152-1.629,6.383C14.495,49.684,20.479,55.667,27.833,55.667z
		 M18.756,37.387c1.835-3.35,3.166-9.658,3.166-15V7.419C21.922,4.983,23.904,3,26.341,3h2.986c2.437,0,4.419,1.982,4.419,4.419
		v14.968c0,5.341,1.331,11.649,3.166,15c0.824,1.504,1.26,3.213,1.26,4.941c0,5.7-4.638,10.338-10.338,10.338
		s-10.338-4.638-10.338-10.338C17.496,40.601,17.931,38.892,18.756,37.387z"/>
	<path style="fill:#010002;" d="M27.771,50.709c4.687,0,8.5-3.813,8.5-8.5c0-3.112-1.675-5.922-4.342-7.413V13.038
		c0-2.18-1.773-3.953-3.953-3.953h-0.408c-2.18,0-3.953,1.773-3.953,3.953v21.758c-2.669,1.491-4.344,4.301-4.344,7.414
		C19.271,46.896,23.084,50.709,27.771,50.709z M25.685,37.122c0.562-0.232,0.93-0.779,0.93-1.388V13.038
		c0-0.525,0.428-0.953,0.953-0.953h0.408c0.525,0,0.953,0.428,0.953,0.953v22.696c0,0.608,0.367,1.156,0.93,1.387
		c2.073,0.852,3.412,2.849,3.412,5.087c0,3.033-2.468,5.5-5.5,5.5s-5.5-2.467-5.5-5.5C22.271,39.97,23.611,37.974,25.685,37.122z"/>
</g>
<g>
</g>
<g>
</g>
<g>
</g>
<g>
</g>
<g>
</g>
<g>
</g>
<g>
</g>
<g>
</g>
<g>
</g>
<g>
</g>
<g>
</g>
<g>
</g>
<g>
</g>
<g>
</g>
<g>
</g>
</svg>
