<?xml version="1.0" encoding="iso-8859-1"?>
<!-- Generator: Adobe Illustrator 16.0.0, SVG Export Plug-In . SVG Version: 6.00 Build 0)  -->
<!DOCTYPE svg PUBLIC "-//W3C//DTD SVG 1.1//EN" "http://www.w3.org/Graphics/SVG/1.1/DTD/svg11.dtd">
<svg version="1.1" id="Capa_1" xmlns="http://www.w3.org/2000/svg" xmlns:xlink="http://www.w3.org/1999/xlink" x="0px" y="0px"
	 width="33.635px" height="33.635px" viewBox="0 0 33.635 33.635" style="enable-background:new 0 0 33.635 33.635;"
	 xml:space="preserve">
<g>
	<path d="M16.818,3.28C7.545,3.28,0,10.825,0,20.101c0,3.449,1.047,6.771,3.027,9.611c0.28,0.401,0.739,0.643,1.229,0.643h25.123
		c0.488,0,0.947-0.24,1.229-0.643c1.98-2.84,3.027-6.162,3.027-9.611C33.637,10.826,26.092,3.28,16.818,3.28z M16.818,8.152
		c1.014,0,1.834,0.821,1.834,1.834c0,1.012-0.82,1.833-1.834,1.833c-1.013,0-1.832-0.821-1.832-1.833
		C14.986,8.974,15.805,8.152,16.818,8.152z M7.486,22.32c-1.014,0-1.834-0.821-1.834-1.833c0-1.014,0.82-1.834,1.834-1.834
		c1.012,0,1.832,0.82,1.832,1.834C9.318,21.499,8.498,22.32,7.486,22.32z M22.809,15.442l-3.412,6.379
		c1.375,0.861,2.297,2.379,2.297,4.122h-9.75c0-2.54,1.949-4.603,4.432-4.83l3.787-7.085c0.392-0.73,1.304-1.006,2.031-0.615
		C22.922,13.802,23.199,14.711,22.809,15.442z M26.152,22.32c-1.015,0-1.834-0.821-1.834-1.833c0-1.014,0.819-1.834,1.834-1.834
		c1.012,0,1.834,0.82,1.834,1.834C27.986,21.499,27.164,22.32,26.152,22.32z"/>
</g>
<g>
</g>
<g>
</g>
<g>
</g>
<g>
</g>
<g>
</g>
<g>
</g>
<g>
</g>
<g>
</g>
<g>
</g>
<g>
</g>
<g>
</g>
<g>
</g>
<g>
</g>
<g>
</g>
<g>
</g>
</svg>
