<?xml version="1.0" ?><!DOCTYPE svg  PUBLIC '-//W3C//DTD SVG 1.1//EN'  'http://www.w3.org/Graphics/SVG/1.1/DTD/svg11.dtd'><svg enable-background="new 0 0 512 512" height="512px" id="Layer_1" version="1.1" viewBox="0 0 512 512" width="512px" xml:space="preserve" xmlns="http://www.w3.org/2000/svg" xmlns:xlink="http://www.w3.org/1999/xlink"><g><path d="M456.087,367.839   c0,21.452-17.396,39.161-38.814,39.161H209.109c-34.792,0-62.432-28.538-62.432-63.33c0-14.611,4.985-28.055,13.374-38.781   c11.483-14.817,29.428-24.341,49.609-24.341c3.025,0,6.016,0.086,8.939,0.533c6.326-25.75,22.518-47.641,44.349-61.358   c15.505-9.798,33.898-15.432,53.563-15.432c55.66,0,100.765,45.107,100.765,100.767c0,8.182-0.963,16.125-2.819,23.757   c0.928-0.069,1.857,0.071,2.819,0.071C438.692,328.885,456.087,346.42,456.087,367.839z" fill="#fff" stroke="#fff" stroke-miterlimit="10" stroke-width="30"/><path d="M262.946,219.73   c-21.831,13.717-38.023,35.617-44.349,61.366c-2.922-0.447-5.913-0.516-8.939-0.516c-20.18,0-38.126,9.557-49.609,24.375   c-23.034-12.136-38.745-36.27-38.745-64.117c0-39.983,32.42-72.402,72.402-72.402C226.367,168.436,253.939,190.027,262.946,219.73z   " fill="#fff" stroke="#fff" stroke-miterlimit="10" stroke-width="30"/><line fill="none" stroke="#fff" stroke-miterlimit="10" stroke-width="30" x1="194" x2="194" y1="105" y2="143"/><line fill="#fff" stroke="#fff" stroke-miterlimit="10" stroke-width="30" x1="56" x2="94" y1="242" y2="242"/><line fill="#fff" stroke="#fff" stroke-miterlimit="10" stroke-width="30" x1="261.622" x2="289.547" y1="174.171" y2="146.246"/><line fill="#fff" stroke="#fff" stroke-miterlimit="10" stroke-width="30" x1="93.782" x2="121.707" y1="337.075" y2="309.15"/><line fill="#fff" stroke="#fff" stroke-miterlimit="10" stroke-width="30" x1="93.782" x2="121.707" y1="146.246" y2="174.171"/></g></svg>